<?xml version="1.0" encoding="utf-8"?>
<!-- Generator: Adobe Illustrator 24.2.1, SVG Export Plug-In . SVG Version: 6.00 Build 0)  -->
<svg version="1.1" id="Layer_1" xmlns="http://www.w3.org/2000/svg" xmlns:xlink="http://www.w3.org/1999/xlink" x="0px" y="0px"
	 viewBox="0 0 319.1 158.6" style="enable-background:new 0 0 319.1 158.6;" xml:space="preserve">
<style type="text/css">
	.st0{fill:#B3B3B3;}
	.st1{enable-background:new    ;}
	.st2{fill:url(#SVGID_1_);}
	.st3{fill:url(#SVGID_2_);}
	.st4{fill:url(#SVGID_3_);}
	.st5{fill:url(#SVGID_4_);}
	.st6{fill:url(#SVGID_5_);}
	.st7{fill:url(#SVGID_6_);}
	.st8{fill:url(#SVGID_7_);}
	.st9{fill:url(#SVGID_8_);}
	.st10{fill:url(#SVGID_9_);}
	.st11{fill:url(#SVGID_10_);stroke:#FFFFFF;stroke-width:2;stroke-miterlimit:10;}
</style>
<g id="Layer_7">
</g>
<g id="Layer_7_copy">
	<path class="st0" d="M226.2,82.9c-1,4-1.8,7.4-2.7,10.8c-0.5,2-1.4,3.9-1.7,6c-0.4,2.9-1.9,3.4-4.2,3.4c-7.8-0.1-15.7,0-23.5,0
		c-15.6,0-31.2,0-46.8,0c-3.6,0-3.8-0.2-3.8-4.3c0-15.4,0-30.7,0-46.1c0-4.1,0.2-4.3,3.8-4.3c23.5,0,47,0,70.6,0c3.7,0,3.7,0,2.7,4
		c-1,3.7-2.1,7.4-2.9,11.2c-0.5,2.5-1.7,3.2-3.9,3.2c-15.4-0.1-30.8-0.1-46.2-0.1c-4.2,0-4.2,0-4.2,4.8c0,2.5,0.1,5.1,0,7.6
		c-0.2,3,0.7,4,3.4,4c16.4-0.1,32.9-0.1,49.3-0.1C219.2,82.9,222.5,82.9,226.2,82.9z"/>
	<path class="st0" d="M185.2,12.8c12.5,0,25,0,37.5,0c3.5,0,3.5,0.2,2.5,3.9c-1.2,4.4-2.5,8.8-3.5,13.3c-0.5,2.3-1.6,2.8-3.4,2.8
		c-7.3,0-14.6,0-21.8,0c-16.4,0-32.8-0.1-49.3,0.1c-2.7,0-3.9-0.8-3.7-4.1c0.2-3.9,0-7.8,0-11.7c0-4,0.2-4.2,3.9-4.2
		C160,12.8,172.6,12.8,185.2,12.8z"/>
	<path class="st0" d="M316.9,80.3c-2,10.3-6.7,18-15.4,21.7c-2.7,1.1-5.8,1.5-8.7,1.6c-19.9,0.1-39.8,0.1-59.7,0.1
		c-3.6,0-3.7-0.2-2.7-4.1c1.1-4.3,2.4-8.6,3.5-13c0.6-2.3,2-2.6,3.8-2.6c17.9,0.1,35.7,0.1,53.6,0c5.2,0,7.8-2.9,7.7-8.2
		c-0.1-4.5-2.6-7.3-6.7-7.3c-13.3,0-26.5,0-39.8-0.1c-11.1,0-18.6-6-22.6-17.9c-1.1-3.2-0.8-3.7,2.1-3.7c5.4,0,10.9,0,16.3,0
		c5.3,0,10.7,0,16,0v0.1c9.6,0,19.2,0.4,28.7-0.1C310.8,45.8,319.7,65.9,316.9,80.3"/>
	<path class="st0" d="M311.1,17.3c-1.1,4.3-2.4,8.6-3.5,13c-0.6,2.5-2.1,2.5-3.9,2.5c-23.8,0-47.5,0-71.3,0c-0.9,0-1.8-0.1-2.9-0.2
		c1-8.5,8.4-17.1,15.6-18.6c2.7-0.5,5.5-0.9,8.2-0.9c18.3-0.1,36.6,0,55,0C312.2,13.1,312.2,13.2,311.1,17.3"/>

	<g>

			<linearGradient id="SVGID_1_" gradientUnits="userSpaceOnUse" x1="-5322.5186" y1="20161.5938" x2="-5176.0732" y2="20161.5938" gradientTransform="matrix(0.5689 0 0 -0.5689 3081.9807 11529.0742)">
			<stop  offset="0" style="stop-color:#1B1464"/>
			<stop  offset="1" style="stop-color:#8053AA"/>
		</linearGradient>
		<path class="st2" d="M83.7,86.7c3.6-0.3,7.2-0.3,10.8-0.7c4.8-0.6,9-2.3,12.8-5.6c5.3-4.6,8-10.4,8.8-17.4c0.7-6.1,0-12-2.8-17.5
			c-3.5-6.9-9.2-11.3-16.6-13c-2.7-0.6-5.5-0.7-8.3-0.9c-1.1-0.1-1.5-0.3-1.4-1.4c0-5.2,0-10.3,0-15.5c0-1,0.3-1.4,1.3-1.4
			c10.4-0.2,20.2,2.1,29,7.9c9.2,6,15.3,14.3,18.3,25c2.3,8.6,2.3,17.4-0.1,26c-2.7,9.3-7.8,17-15.4,22.9
			c-8.4,6.4-17.9,9.6-28.4,9.7c-12,0.2-24,0.2-36,0.2c-1.5,0-1.7-0.2-1.7-1.8c0-4.7,0-9.3,0-14c0-5,0.1-9.9,0.2-14.9
			c0-1.4,0.3-1.6,1.6-1.6c3.9,0,7.9,0.1,11.8,0.2c1.7,0,3.3-0.1,4.9-0.1c1.4,0,1.6,0.2,1.6,1.6c0,3.6,0,7,0,10.6
			c0,1.3,0.5,1.5,1.7,1.5c2.7-0.1,5.3,0,8.1,0C83.7,86.5,83.7,86.6,83.7,86.7z"/>
	</g>
	<g>
		<path class="st0" d="M19,13.3c5.2,0,10.3,0,15.5,0c0.9,0,1.3,0.4,1.3,2.1c-0.1,5.3-0.1,10.7,0,16c0,1.6-0.3,2-1.2,2
			c-10.4,0-20.8,0-31.4,0c-0.8,0-1.1-0.4-1.1-1.9c0-5.4,0-10.9,0-16.4c0-1.4,0.3-1.9,1.1-1.9C8.5,13.3,13.8,13.3,19,13.3L19,13.3z"
			/>
		<path class="st0" d="M36.2,59.3c0,14.2,0,28.3,0,42.5c0,2.5-0.4,3.4-2,3.3c-5-0.1-10-0.2-15,0c-1.5,0-1.9-0.8-1.9-3.1
			c0-28.6,0-57.2,0-85.8c0-2.1,0.4-2.9,1.8-2.9c5.1,0.1,10.3,0.1,15.3,0c1.3,0,1.8,0.7,1.8,3C36.2,30.6,36.2,45,36.2,59.3L36.2,59.3
			z"/>
	</g>
	<g>

			<linearGradient id="SVGID_2_" gradientUnits="userSpaceOnUse" x1="39.1587" y1="-773.8" x2="88.3996" y2="-773.8" gradientTransform="matrix(1 0 0 -1 0 -748)">
			<stop  offset="0" style="stop-color:#1B1464"/>
			<stop  offset="0.4292" style="stop-color:#301376"/>
			<stop  offset="1" style="stop-color:#7B0EB8"/>
		</linearGradient>
		<circle class="st3" cx="51.1" cy="25.8" r="6.3"/>

			<linearGradient id="SVGID_3_" gradientUnits="userSpaceOnUse" x1="39.1587" y1="-758.1" x2="88.3996" y2="-758.1" gradientTransform="matrix(1 0 0 -1 0 -748)">
			<stop  offset="0" style="stop-color:#1B1464"/>
			<stop  offset="0.4292" style="stop-color:#301376"/>
			<stop  offset="1" style="stop-color:#7B0EB8"/>
		</linearGradient>
		<circle class="st4" cx="58.9" cy="10.1" r="5"/>

			<linearGradient id="SVGID_4_" gradientUnits="userSpaceOnUse" x1="39.1587" y1="-759.3588" x2="88.3996" y2="-759.3588" gradientTransform="matrix(1 0 0 -1 0 -748)">
			<stop  offset="0" style="stop-color:#1B1464"/>
			<stop  offset="0.4292" style="stop-color:#301376"/>
			<stop  offset="1" style="stop-color:#7B0EB8"/>
		</linearGradient>
		<path class="st5" d="M46.3,13c0.9-1.9,0.1-4.1-1.7-5s-4.1-0.1-5,1.7c-0.9,1.9-0.1,4.1,1.7,5S45.3,14.9,46.3,13z"/>

			<linearGradient id="SVGID_5_" gradientUnits="userSpaceOnUse" x1="39.1587" y1="-786.55" x2="88.3996" y2="-786.55" gradientTransform="matrix(1 0 0 -1 0 -748)">
			<stop  offset="0" style="stop-color:#1B1464"/>
			<stop  offset="0.4292" style="stop-color:#301376"/>
			<stop  offset="1" style="stop-color:#7B0EB8"/>
		</linearGradient>
		<path class="st6" d="M75.1,35.1C74,37.4,74.3,40,75.6,42l2.9-3.3L75.1,35.1z"/>

			<linearGradient id="SVGID_6_" gradientUnits="userSpaceOnUse" x1="39.1587" y1="-786.0387" x2="88.3996" y2="-786.0387" gradientTransform="matrix(1 0 0 -1 0 -748)">
			<stop  offset="0" style="stop-color:#1B1464"/>
			<stop  offset="0.4292" style="stop-color:#301376"/>
			<stop  offset="1" style="stop-color:#7B0EB8"/>
		</linearGradient>
		<path class="st7" d="M80.6,38.2l2.1,1.8l-4,4.6c0.2,0.1,0.3,0.1,0.5,0.2c0.8-0.8,1.9-1.3,3.3-1.3c0.3,0,0.5,0,0.8,0.1
			c0.3-0.2,0.6-0.4,0.9-0.6c0.1-0.1,0.4-0.3,0.5-0.4c0.3-0.3,0.6-0.6,0.9-0.9c0.8-0.9,0.6-0.6,1.2-1.7c0-0.1,0.1-0.1,0.1-0.1
			c0-0.1,0-0.1,0-0.2v-0.1c0-0.1,0-0.2,0-0.3c0-1.1,0.4-2.2,1-3c-0.5-1.8-1.8-3.4-3.6-4.3c-2.2-1.1-4.7-0.9-6.7,0.3l4.3,4.6
			L80.6,38.2z"/>

			<linearGradient id="SVGID_7_" gradientUnits="userSpaceOnUse" x1="39.1587" y1="-803.5573" x2="88.3996" y2="-803.5573" gradientTransform="matrix(1 0 0 -1 0 -748)">
			<stop  offset="0" style="stop-color:#1B1464"/>
			<stop  offset="0.4292" style="stop-color:#301376"/>
			<stop  offset="1" style="stop-color:#7B0EB8"/>
		</linearGradient>
		<path class="st8" d="M78.7,44.6c-0.1-0.1-0.2-0.1-0.4-0.2c-1.1-0.6-2.1-1.4-2.7-2.4l-7.4,8.7c-0.1-0.1-0.3-0.2-0.4-0.2
			C62.9,48.1,57,50.1,54.7,55c-2.4,4.9-0.4,10.8,4.5,13.1c4.9,2.4,10.8,0.4,13.1-4.5c1.7-3.5,1.1-7.5-1.1-10.3L78.7,44.6z"/>

			<linearGradient id="SVGID_8_" gradientUnits="userSpaceOnUse" x1="39.1587" y1="-774.3067" x2="88.3996" y2="-774.3067" gradientTransform="matrix(1 0 0 -1 0 -748)">
			<stop  offset="0" style="stop-color:#1B1464"/>
			<stop  offset="0.4292" style="stop-color:#301376"/>
			<stop  offset="1" style="stop-color:#7B0EB8"/>
		</linearGradient>
		<path class="st9" d="M77.8,32.1l-6.2-6.6c1.3-2.8,0.1-6.1-2.6-7.4c-2.8-1.4-6.2-0.2-7.5,2.6c-1.4,2.8-0.2,6.2,2.6,7.5
			c1.5,0.8,3.3,0.7,4.7,0.1l6.4,6.8l0,0C75.7,33.8,76.6,32.8,77.8,32.1z"/>

			<linearGradient id="SVGID_9_" gradientUnits="userSpaceOnUse" x1="-4444.2607" y1="-785.5" x2="-4429.2607" y2="-785.5" gradientTransform="matrix(-1 0 0 -1 -4355.9609 -748)">
			<stop  offset="0" style="stop-color:#1B1464"/>
			<stop  offset="0.4292" style="stop-color:#301376"/>
			<stop  offset="1" style="stop-color:#7B0EB8"/>
		</linearGradient>
		<circle class="st10" cx="80.8" cy="37.5" r="7.5"/>

			<linearGradient id="SVGID_10_" gradientUnits="userSpaceOnUse" x1="76.3" y1="-785.5" x2="85.3" y2="-785.5" gradientTransform="matrix(1 0 0 -1 0 -748)">
			<stop  offset="0" style="stop-color:#1B1464"/>
			<stop  offset="0.4292" style="stop-color:#301376"/>
			<stop  offset="1" style="stop-color:#7B0EB8"/>
		</linearGradient>
		<circle class="st11" cx="80.8" cy="37.5" r="4.5"/>
	</g>
</g>
</svg>
